<?xml version="1.0" encoding="utf-8"?>
<!-- Generator: Adobe Illustrator 17.0.0, SVG Export Plug-In . SVG Version: 6.00 Build 0)  -->
<!DOCTYPE svg PUBLIC "-//W3C//DTD SVG 1.1//EN" "http://www.w3.org/Graphics/SVG/1.1/DTD/svg11.dtd">
<svg version="1.1" id="Layer_1" xmlns="http://www.w3.org/2000/svg" xmlns:xlink="http://www.w3.org/1999/xlink" x="0px" y="0px"
	 width="800px" height="800px" viewBox="0 0 800 800" enable-background="new 0 0 800 800" xml:space="preserve">
<pattern  x="-20.5" y="697.5" width="248" height="207" patternUnits="userSpaceOnUse" id="pattern_1_" viewBox="26.849 -247.259 248 207" overflow="visible">
	<g>
		<polygon fill="none" points="26.849,-40.259 274.849,-40.259 274.849,-247.259 26.849,-247.259 		"/>
		<g>
			<polygon fill="none" points="26.849,-40.259 274.849,-40.259 274.849,-247.259 26.849,-247.259 			"/>
			<g>
				<g>
					<polygon fill="#98E8D6" points="30.675,-258.25 57.32,-272.492 84.237,-258.25 57.32,-243.485 					"/>
				</g>
				<g>
					<polygon fill="#F16675" points="92.807,-258.25 119.452,-272.492 146.368,-258.25 119.452,-243.485 					"/>
				</g>
				<g>
					<polygon fill="#6A4A7E" points="154.938,-258.25 181.583,-272.492 208.5,-258.25 181.583,-243.485 					"/>
				</g>
				<g>
					<polygon fill="#3A9799" points="217.07,-258.25 243.715,-272.492 270.631,-258.25 243.715,-243.485 					"/>
				</g>
			</g>
			<g>
				<g>
					<polygon fill="#FFA277" points="248,-103.085 274.645,-117.327 301.561,-103.085 274.645,-88.32 					"/>
					<polygon fill="#6A4A7E" points="274.645,-117.327 274.645,-147.118 248,-132.484 248,-103.085 					"/>
					<polygon fill="#FFE96D" points="301.561,-103.085 274.645,-117.327 274.645,-147.118 301.561,-132.614 					"/>
				</g>
				<g>
					<polygon fill="#FFE96D" points="248,-207 274.645,-221.242 301.561,-207 274.645,-192.235 					"/>
					<polygon fill="#98E8D6" points="274.645,-221.242 274.645,-251.033 248,-236.399 248,-207 					"/>
					<polygon fill="#3A9799" points="301.561,-207 274.645,-221.242 274.645,-251.033 301.561,-236.53 					"/>
				</g>
			</g>
			<g>
				<g>
					<polygon fill="#98E8D6" points="30.675,-51.25 57.32,-65.492 84.237,-51.25 57.32,-36.485 					"/>
					<polygon fill="#F16675" points="57.32,-65.492 57.32,-95.283 30.675,-80.649 30.675,-51.25 					"/>
					<polygon fill="#6A4A7E" points="84.237,-51.25 57.32,-65.492 57.32,-95.283 84.237,-80.649 					"/>
				</g>
				<g>
					<polygon fill="#F16675" points="92.807,-51.25 119.452,-65.492 146.368,-51.25 119.452,-36.485 					"/>
					<polygon fill="#FFE96D" points="119.452,-65.492 119.452,-95.283 92.807,-80.649 92.807,-51.25 					"/>
					<polygon fill="#3A9799" points="146.368,-51.25 119.452,-65.492 119.452,-95.283 146.368,-80.649 					"/>
				</g>
				<g>
					<polygon fill="#6A4A7E" points="154.938,-51.25 181.583,-65.492 208.5,-51.25 181.583,-36.485 					"/>
					<polygon fill="#98E8D6" points="181.583,-65.492 181.583,-95.283 154.938,-80.649 154.938,-51.25 					"/>
					<polygon fill="#FFA277" points="208.5,-51.25 181.583,-65.492 181.583,-95.283 208.5,-80.649 					"/>
				</g>
				<g>
					<polygon fill="#3A9799" points="217.07,-51.25 243.715,-65.492 270.631,-51.25 243.715,-36.485 					"/>
					<polygon fill="#FFE96D" points="243.715,-65.492 243.715,-95.283 217.07,-80.649 217.07,-51.25 					"/>
					<polygon fill="#DEF8BC" points="270.631,-51.25 243.715,-65.492 243.715,-95.283 270.631,-80.78 					"/>
				</g>
				<g>
					<polygon fill="#DEF8BC" points="61.741,-103.085 88.386,-117.327 115.302,-103.085 88.386,-88.32 					"/>
					<polygon fill="#3A9799" points="88.386,-117.327 88.386,-147.118 61.741,-132.484 61.741,-103.085 					"/>
					<polygon fill="#F16675" points="115.302,-103.085 88.386,-117.327 88.386,-147.118 115.302,-132.484 					"/>
				</g>
				<g>
					<polygon fill="#FFE96D" points="123.873,-103.085 150.517,-117.327 177.434,-103.085 150.517,-88.32 					"/>
					<polygon fill="#FFA277" points="150.517,-117.327 150.517,-147.118 123.873,-132.484 123.873,-103.085 					"/>
					<polygon fill="#6A4A7E" points="177.434,-103.085 150.517,-117.327 150.517,-147.118 177.434,-132.484 					"/>
				</g>
				<g>
					<polygon fill="#98E8D6" points="186.004,-103.085 212.649,-117.327 239.565,-103.085 212.649,-88.32 					"/>
					<polygon fill="#DEF8BC" points="212.649,-117.327 212.649,-147.118 186.004,-132.484 186.004,-103.085 					"/>
					<polygon fill="#3A9799" points="239.565,-103.085 212.649,-117.327 212.649,-147.118 239.565,-132.484 					"/>
				</g>
				<g>
					<polygon fill="#FFA277" points="248.136,-103.085 274.78,-117.327 301.697,-103.085 274.78,-88.32 					"/>
					<polygon fill="#6A4A7E" points="274.78,-117.327 274.78,-147.118 248.136,-132.484 248.136,-103.085 					"/>
					<polygon fill="#FFE96D" points="301.697,-103.085 274.78,-117.327 274.78,-147.118 301.697,-132.614 					"/>
				</g>
				<g>
					<polygon fill="#6A4A7E" points="30.675,-155.165 57.32,-169.407 84.237,-155.165 57.32,-140.4 					"/>
					<polygon fill="#FFA277" points="57.32,-169.407 57.32,-199.198 30.675,-184.564 30.675,-155.165 					"/>
					<polygon fill="#98E8D6" points="84.237,-155.165 57.32,-169.407 57.32,-199.198 84.237,-184.564 					"/>
				</g>
				<g>
					<polygon fill="#98E8D6" points="92.807,-155.165 119.452,-169.407 146.368,-155.165 119.452,-140.4 					"/>
					<polygon fill="#FFE96D" points="119.452,-169.407 119.452,-199.198 92.807,-184.564 92.807,-155.165 					"/>
					<polygon fill="#3A9799" points="146.368,-155.165 119.452,-169.407 119.452,-199.198 146.368,-184.564 					"/>
				</g>
				<g>
					<polygon fill="#F16675" points="154.938,-155.165 181.583,-169.407 208.5,-155.165 181.583,-140.4 					"/>
					<polygon fill="#6A4A7E" points="181.583,-169.407 181.583,-199.198 154.938,-184.564 154.938,-155.165 					"/>
					<polygon fill="#98E8D6" points="208.5,-155.165 181.583,-169.407 181.583,-199.198 208.5,-184.564 					"/>
				</g>
				<g>
					<polygon fill="#DEF8BC" points="217.07,-155.165 243.715,-169.407 270.631,-155.165 243.715,-140.4 					"/>
					<polygon fill="#FFA277" points="243.715,-169.407 243.715,-199.198 217.07,-184.564 217.07,-155.165 					"/>
					<polygon fill="#F16675" points="270.631,-155.165 243.715,-169.407 243.715,-199.198 270.631,-184.695 					"/>
				</g>
				<g>
					<polygon fill="#F16675" points="61.741,-207 88.386,-221.242 115.302,-207 88.386,-192.235 					"/>
					<polygon fill="#DEF8BC" points="88.386,-221.242 88.386,-251.033 61.741,-236.399 61.741,-207 					"/>
					<polygon fill="#6A4A7E" points="115.302,-207 88.386,-221.242 88.386,-251.033 115.302,-236.399 					"/>
				</g>
				<g>
					<polygon fill="#FFA277" points="123.873,-207 150.517,-221.242 177.434,-207 150.517,-192.235 					"/>
					<polygon fill="#3A9799" points="150.517,-221.242 150.517,-251.033 123.873,-236.399 123.873,-207 					"/>
					<polygon fill="#FFE96D" points="177.434,-207 150.517,-221.242 150.517,-251.033 177.434,-236.399 					"/>
				</g>
				<g>
					<polygon fill="#3A9799" points="186.004,-207 212.649,-221.242 239.565,-207 212.649,-192.235 					"/>
					<polygon fill="#F16675" points="212.649,-221.242 212.649,-251.033 186.004,-236.399 186.004,-207 					"/>
					<polygon fill="#DEF8BC" points="239.565,-207 212.649,-221.242 212.649,-251.033 239.565,-236.399 					"/>
				</g>
				<g>
					<polygon fill="#FFE96D" points="248.136,-207 274.78,-221.242 301.697,-207 274.78,-192.235 					"/>
					<polygon fill="#98E8D6" points="274.78,-221.242 274.78,-251.033 248.136,-236.399 248.136,-207 					"/>
					<polygon fill="#3A9799" points="301.697,-207 274.78,-221.242 274.78,-251.033 301.697,-236.53 					"/>
				</g>
				<g>
					<polygon fill="#FFA277" points="0,-103.085 26.645,-117.327 53.561,-103.085 26.645,-88.32 					"/>
					<polygon fill="#6A4A7E" points="26.645,-117.327 26.645,-147.118 0,-132.484 0,-103.085 					"/>
					<polygon fill="#FFE96D" points="53.561,-103.085 26.645,-117.327 26.645,-147.118 53.561,-132.614 					"/>
				</g>
				<g>
					<polygon fill="#FFE96D" points="0,-207 26.645,-221.242 53.561,-207 26.645,-192.235 					"/>
					<polygon fill="#98E8D6" points="26.645,-221.242 26.645,-251.033 0,-236.399 0,-207 					"/>
					<polygon fill="#3A9799" points="53.561,-207 26.645,-221.242 26.645,-251.033 53.561,-236.53 					"/>
				</g>
			</g>
			<g>
				<g>
					<polygon fill="#FFA277" points="0.136,-103.085 26.781,-117.327 53.697,-103.085 26.781,-88.32 					"/>
					<polygon fill="#FFE96D" points="53.697,-103.085 26.781,-117.327 26.781,-147.118 53.697,-132.614 					"/>
				</g>
				<g>
					<polygon fill="#FFE96D" points="0.136,-207 26.781,-221.242 53.697,-207 26.781,-192.235 					"/>
					<polygon fill="#3A9799" points="53.697,-207 26.781,-221.242 26.781,-251.033 53.697,-236.53 					"/>
				</g>
			</g>
			<g>
				<g>
					<polygon fill="#98E8D6" points="274.645,-14.242 274.645,-44.033 248,-29.399 248,0 					"/>
					<polygon fill="#3A9799" points="301.561,0 274.645,-14.242 274.645,-44.033 301.561,-29.53 					"/>
				</g>
			</g>
			<g>
				<g>
					<polygon fill="#DEF8BC" points="88.386,-14.242 88.386,-44.033 61.741,-29.399 61.741,0 					"/>
					<polygon fill="#6A4A7E" points="115.302,0 88.386,-14.242 88.386,-44.033 115.302,-29.399 					"/>
				</g>
				<g>
					<polygon fill="#3A9799" points="150.517,-14.242 150.517,-44.033 123.873,-29.399 123.873,0 					"/>
					<polygon fill="#FFE96D" points="177.434,0 150.517,-14.242 150.517,-44.033 177.434,-29.399 					"/>
				</g>
				<g>
					<polygon fill="#F16675" points="212.649,-14.242 212.649,-44.033 186.004,-29.399 186.004,0 					"/>
					<polygon fill="#DEF8BC" points="239.565,0 212.649,-14.242 212.649,-44.033 239.565,-29.399 					"/>
				</g>
				<g>
					<polygon fill="#98E8D6" points="274.78,-14.242 274.78,-44.033 248.136,-29.399 248.136,0 					"/>
					<polygon fill="#3A9799" points="301.697,0 274.78,-14.242 274.78,-44.033 301.697,-29.53 					"/>
				</g>
				<g>
					<polygon fill="#3A9799" points="53.561,0 26.645,-14.242 26.645,-44.033 53.561,-29.53 					"/>
				</g>
			</g>
			<g>
				<g>
					<polygon fill="#3A9799" points="53.697,0 26.781,-14.242 26.781,-44.033 53.697,-29.53 					"/>
				</g>
			</g>
		</g>
	</g>
</pattern>
<g id="pattern" opacity="0.25">
	<g>
		<pattern  id="SVGID_1_" xlink:href="#pattern_1_" patternTransform="matrix(1 0 0 -1 -6.349 -16989.9707)">
		</pattern>
		<rect x="0" fill="url(#SVGID_1_)" width="800" height="800"/>
		<pattern  id="SVGID_2_" xlink:href="#pattern_1_" patternTransform="matrix(1 0 0 -1 -6.349 -16989.9707)">
		</pattern>
		<rect x="0" fill="url(#SVGID_2_)" width="800" height="800"/>
	</g>
</g>
<g id="objects">
</g>
</svg>
